<svg xmlns="http://www.w3.org/2000/svg" width="768" viewBox="0 0 768 768" height="768" version="1.0"><defs><clipPath id="a"><path d="M 236.808594 236.808594 L 531.558594 236.808594 L 531.558594 531.558594 L 236.808594 531.558594 Z M 236.808594 236.808594"/></clipPath><clipPath id="b"><path d="M 225.128906 233.234375 L 348 233.234375 L 348 534.734375 L 225.128906 534.734375 Z M 225.128906 233.234375"/></clipPath><clipPath id="c"><path d="M 420 233.234375 L 543.128906 233.234375 L 543.128906 534.734375 L 420 534.734375 Z M 420 233.234375"/></clipPath></defs><path fill="#F00" d="M 751.234375 198.589844 C 750.6875 196.5625 750.070312 194.558594 749.390625 192.570312 C 748.710938 190.585938 747.96875 188.621094 747.160156 186.683594 C 746.355469 184.746094 745.484375 182.835938 744.550781 180.957031 C 743.621094 179.074219 742.628906 177.226562 741.578125 175.410156 C 740.523438 173.59375 739.414062 171.8125 738.246094 170.066406 C 737.078125 168.324219 735.855469 166.617188 734.578125 164.953125 C 733.296875 163.289062 731.964844 161.667969 730.582031 160.089844 C 729.199219 158.511719 727.765625 156.980469 726.28125 155.496094 C 724.796875 154.011719 723.265625 152.578125 721.6875 151.191406 C 720.113281 149.804688 718.492188 148.472656 716.828125 147.195312 C 715.164062 145.914062 713.460938 144.691406 711.714844 143.523438 C 709.972656 142.355469 708.191406 141.242188 706.378906 140.191406 C 704.5625 139.140625 702.714844 138.148438 700.832031 137.214844 C 698.953125 136.28125 697.042969 135.410156 695.105469 134.605469 C 693.171875 133.796875 691.210938 133.050781 689.222656 132.371094 C 687.238281 131.691406 685.234375 131.078125 683.207031 130.527344 C 623.566406 114.234375 383.519531 114.234375 383.519531 114.234375 C 383.519531 114.234375 143.460938 114.714844 83.808594 131.007812 C 81.78125 131.558594 79.777344 132.171875 77.792969 132.851562 C 75.808594 133.53125 73.84375 134.277344 71.910156 135.085938 C 69.972656 135.890625 68.0625 136.761719 66.183594 137.695312 C 64.300781 138.625 62.453125 139.621094 60.640625 140.671875 C 58.824219 141.722656 57.042969 142.835938 55.300781 144.003906 C 53.554688 145.171875 51.851562 146.394531 50.1875 147.675781 C 48.523438 148.953125 46.90625 150.285156 45.328125 151.671875 C 43.75 153.058594 42.21875 154.492188 40.734375 155.976562 C 39.253906 157.460938 37.816406 158.992188 36.433594 160.570312 C 35.050781 162.148438 33.71875 163.769531 32.4375 165.433594 C 31.160156 167.097656 29.9375 168.804688 28.769531 170.546875 C 27.601562 172.292969 26.492188 174.074219 25.4375 175.890625 C 24.386719 177.707031 23.394531 179.554688 22.464844 181.4375 C 21.53125 183.316406 20.664062 185.226562 19.855469 187.164062 C 19.046875 189.101562 18.304688 191.066406 17.625 193.050781 C 16.945312 195.039062 16.328125 197.042969 15.78125 199.070312 C 0 258.753906 0 383.535156 0 383.535156 C 0 383.535156 0 508.316406 16.273438 568.480469 C 16.820312 570.503906 17.4375 572.511719 18.117188 574.496094 C 18.796875 576.484375 19.539062 578.445312 20.347656 580.382812 C 21.15625 582.320312 22.023438 584.230469 22.957031 586.113281 C 23.886719 587.996094 24.878906 589.84375 25.929688 591.660156 C 26.984375 593.476562 28.09375 595.257812 29.261719 597 C 30.429688 598.746094 31.652344 600.449219 32.929688 602.117188 C 34.210938 603.78125 35.542969 605.402344 36.925781 606.980469 C 38.308594 608.558594 39.742188 610.089844 41.226562 611.574219 C 42.710938 613.058594 44.242188 614.492188 45.820312 615.878906 C 47.398438 617.261719 49.015625 618.59375 50.679688 619.875 C 52.34375 621.152344 54.046875 622.378906 55.792969 623.546875 C 57.535156 624.714844 59.316406 625.824219 61.132812 626.878906 C 62.945312 627.929688 64.792969 628.921875 66.675781 629.855469 C 68.554688 630.789062 70.464844 631.65625 72.402344 632.464844 C 74.335938 633.273438 76.296875 634.015625 78.285156 634.699219 C 80.269531 635.378906 82.273438 635.992188 84.300781 636.542969 C 143.941406 652.835938 384 652.835938 384 652.835938 C 384 652.835938 624.058594 652.835938 683.710938 636.554688 C 685.738281 636.003906 687.742188 635.390625 689.726562 634.710938 C 691.714844 634.027344 693.675781 633.285156 695.609375 632.476562 C 697.546875 631.667969 699.457031 630.800781 701.335938 629.867188 C 703.21875 628.933594 705.066406 627.941406 706.882812 626.890625 C 708.695312 625.835938 710.476562 624.726562 712.21875 623.558594 C 713.964844 622.390625 715.667969 621.164062 717.332031 619.886719 C 718.996094 618.605469 720.617188 617.273438 722.191406 615.890625 C 723.769531 614.503906 725.300781 613.070312 726.785156 611.585938 C 728.269531 610.101562 729.703125 608.570312 731.085938 606.992188 C 732.46875 605.414062 733.800781 603.792969 735.082031 602.128906 C 736.359375 600.460938 737.582031 598.757812 738.75 597.011719 C 739.917969 595.269531 741.027344 593.488281 742.082031 591.671875 C 743.132812 589.855469 744.125 588.007812 745.054688 586.125 C 745.988281 584.242188 746.859375 582.335938 747.664062 580.394531 C 748.472656 578.457031 749.214844 576.496094 749.894531 574.511719 C 750.574219 572.523438 751.191406 570.515625 751.738281 568.492188 C 768 508.808594 768 383.535156 768 383.535156 C 768 383.535156 767.519531 258.753906 751.234375 198.589844 Z M 751.234375 198.589844"/><path fill="#FFF" d="M 307.105469 498.9375 L 506.242188 383.535156 L 307.09375 268.128906 Z M 307.105469 498.9375"/><g clip-path="url(#a)"><path fill="#F00" d="M 531.558594 384.183594 C 531.558594 386.597656 531.5 389.007812 531.382812 391.414062 C 531.261719 393.824219 531.085938 396.230469 530.847656 398.628906 C 530.613281 401.03125 530.316406 403.421875 529.964844 405.808594 C 529.609375 408.195312 529.199219 410.570312 528.726562 412.9375 C 528.257812 415.300781 527.730469 417.652344 527.144531 419.992188 C 526.554688 422.332031 525.914062 424.65625 525.214844 426.964844 C 524.511719 429.273438 523.757812 431.5625 522.945312 433.832031 C 522.132812 436.105469 521.265625 438.355469 520.339844 440.582031 C 519.417969 442.8125 518.441406 445.015625 517.410156 447.195312 C 516.378906 449.375 515.292969 451.527344 514.15625 453.65625 C 513.019531 455.785156 511.832031 457.882812 510.59375 459.949219 C 509.351562 462.019531 508.0625 464.054688 506.722656 466.0625 C 505.382812 468.066406 503.992188 470.039062 502.558594 471.976562 C 501.121094 473.914062 499.636719 475.8125 498.105469 477.679688 C 496.578125 479.542969 495 481.367188 493.382812 483.15625 C 491.761719 484.941406 490.097656 486.6875 488.394531 488.394531 C 486.6875 490.101562 484.941406 491.761719 483.15625 493.382812 C 481.367188 495 479.542969 496.578125 477.679688 498.105469 C 475.8125 499.636719 473.914062 501.121094 471.976562 502.558594 C 470.039062 503.992188 468.066406 505.382812 466.0625 506.722656 C 464.054688 508.0625 462.019531 509.351562 459.949219 510.59375 C 457.882812 511.832031 455.785156 513.019531 453.65625 514.15625 C 451.527344 515.292969 449.375 516.378906 447.195312 517.410156 C 445.015625 518.441406 442.808594 519.417969 440.582031 520.339844 C 438.355469 521.265625 436.105469 522.132812 433.832031 522.945312 C 431.5625 523.757812 429.273438 524.511719 426.964844 525.214844 C 424.65625 525.914062 422.332031 526.554688 419.992188 527.140625 C 417.652344 527.730469 415.300781 528.257812 412.9375 528.726562 C 410.570312 529.199219 408.195312 529.609375 405.808594 529.964844 C 403.421875 530.316406 401.03125 530.613281 398.628906 530.851562 C 396.230469 531.085938 393.824219 531.261719 391.414062 531.382812 C 389.007812 531.5 386.597656 531.558594 384.183594 531.558594 C 381.773438 531.558594 379.363281 531.5 376.953125 531.382812 C 374.542969 531.261719 372.140625 531.085938 369.738281 530.851562 C 367.339844 530.613281 364.945312 530.316406 362.558594 529.964844 C 360.175781 529.609375 357.796875 529.199219 355.433594 528.726562 C 353.066406 528.257812 350.714844 527.730469 348.375 527.140625 C 346.035156 526.554688 343.710938 525.914062 341.402344 525.214844 C 339.09375 524.511719 336.804688 523.757812 334.535156 522.945312 C 332.265625 522.132812 330.015625 521.265625 327.785156 520.339844 C 325.558594 519.417969 323.355469 518.441406 321.171875 517.410156 C 318.992188 516.378906 316.839844 515.292969 314.710938 514.15625 C 312.585938 513.019531 310.488281 511.832031 308.417969 510.59375 C 306.347656 509.351562 304.3125 508.0625 302.308594 506.722656 C 300.300781 505.382812 298.332031 503.992188 296.394531 502.558594 C 294.457031 501.121094 292.554688 499.636719 290.691406 498.105469 C 288.824219 496.578125 287 495 285.214844 493.382812 C 283.425781 491.761719 281.679688 490.097656 279.972656 488.394531 C 278.269531 486.6875 276.605469 484.941406 274.988281 483.15625 C 273.367188 481.367188 271.792969 479.542969 270.261719 477.679688 C 268.730469 475.8125 267.25 473.914062 265.8125 471.976562 C 264.375 470.039062 262.988281 468.066406 261.644531 466.0625 C 260.304688 464.054688 259.015625 462.019531 257.777344 459.949219 C 256.535156 457.882812 255.347656 455.785156 254.210938 453.65625 C 253.074219 451.527344 251.988281 449.375 250.957031 447.195312 C 249.925781 445.015625 248.949219 442.808594 248.027344 440.582031 C 247.105469 438.355469 246.238281 436.105469 245.425781 433.832031 C 244.613281 431.5625 243.855469 429.273438 243.15625 426.964844 C 242.453125 424.65625 241.8125 422.332031 241.226562 419.992188 C 240.640625 417.652344 240.113281 415.300781 239.640625 412.9375 C 239.171875 410.570312 238.757812 408.195312 238.40625 405.808594 C 238.050781 403.421875 237.753906 401.03125 237.519531 398.628906 C 237.28125 396.230469 237.105469 393.824219 236.988281 391.414062 C 236.867188 389.007812 236.808594 386.597656 236.808594 384.183594 C 236.808594 381.773438 236.867188 379.363281 236.988281 376.953125 C 237.105469 374.542969 237.28125 372.140625 237.519531 369.738281 C 237.753906 367.339844 238.050781 364.945312 238.40625 362.558594 C 238.757812 360.175781 239.171875 357.796875 239.640625 355.433594 C 240.113281 353.066406 240.640625 350.714844 241.226562 348.375 C 241.8125 346.035156 242.453125 343.710938 243.15625 341.402344 C 243.855469 339.09375 244.613281 336.804688 245.425781 334.535156 C 246.238281 332.265625 247.105469 330.015625 248.027344 327.785156 C 248.949219 325.558594 249.925781 323.355469 250.957031 321.171875 C 251.988281 318.992188 253.074219 316.839844 254.210938 314.710938 C 255.347656 312.585938 256.535156 310.488281 257.777344 308.417969 C 259.015625 306.351562 260.304688 304.3125 261.644531 302.308594 C 262.988281 300.300781 264.375 298.332031 265.8125 296.394531 C 267.25 294.457031 268.730469 292.554688 270.261719 290.691406 C 271.792969 288.824219 273.367188 287 274.988281 285.214844 C 276.605469 283.425781 278.269531 281.679688 279.972656 279.972656 C 281.679688 278.269531 283.425781 276.605469 285.214844 274.988281 C 287 273.367188 288.824219 271.792969 290.691406 270.261719 C 292.554688 268.730469 294.457031 267.25 296.394531 265.8125 C 298.332031 264.375 300.300781 262.988281 302.308594 261.644531 C 304.3125 260.304688 306.347656 259.015625 308.417969 257.777344 C 310.488281 256.535156 312.585938 255.347656 314.710938 254.210938 C 316.839844 253.074219 318.992188 251.988281 321.171875 250.957031 C 323.355469 249.925781 325.558594 248.949219 327.785156 248.027344 C 330.015625 247.105469 332.265625 246.238281 334.535156 245.425781 C 336.804688 244.613281 339.09375 243.855469 341.402344 243.15625 C 343.710938 242.453125 346.035156 241.8125 348.375 241.226562 C 350.714844 240.640625 353.066406 240.113281 355.433594 239.640625 C 357.796875 239.171875 360.175781 238.757812 362.558594 238.40625 C 364.945312 238.050781 367.339844 237.753906 369.738281 237.519531 C 372.140625 237.28125 374.542969 237.105469 376.953125 236.988281 C 379.363281 236.867188 381.773438 236.808594 384.183594 236.808594 C 386.597656 236.808594 389.007812 236.867188 391.414062 236.988281 C 393.824219 237.105469 396.230469 237.28125 398.628906 237.519531 C 401.03125 237.753906 403.421875 238.050781 405.808594 238.40625 C 408.195312 238.757812 410.570312 239.171875 412.9375 239.640625 C 415.300781 240.113281 417.652344 240.640625 419.992188 241.226562 C 422.332031 241.8125 424.65625 242.453125 426.964844 243.15625 C 429.273438 243.855469 431.5625 244.613281 433.832031 245.425781 C 436.105469 246.238281 438.355469 247.105469 440.582031 248.027344 C 442.808594 248.949219 445.015625 249.925781 447.195312 250.957031 C 449.375 251.988281 451.527344 253.074219 453.65625 254.210938 C 455.785156 255.347656 457.882812 256.535156 459.949219 257.777344 C 462.019531 259.015625 464.054688 260.304688 466.0625 261.644531 C 468.066406 262.988281 470.039062 264.375 471.976562 265.8125 C 473.914062 267.25 475.8125 268.730469 477.679688 270.261719 C 479.542969 271.792969 481.367188 273.367188 483.15625 274.988281 C 484.941406 276.605469 486.6875 278.269531 488.394531 279.972656 C 490.097656 281.679688 491.761719 283.425781 493.382812 285.214844 C 495 287 496.578125 288.824219 498.105469 290.691406 C 499.636719 292.554688 501.121094 294.457031 502.558594 296.394531 C 503.992188 298.332031 505.382812 300.300781 506.722656 302.308594 C 508.0625 304.3125 509.351562 306.351562 510.59375 308.417969 C 511.832031 310.488281 513.019531 312.585938 514.15625 314.710938 C 515.292969 316.839844 516.378906 318.992188 517.410156 321.171875 C 518.441406 323.355469 519.417969 325.558594 520.339844 327.785156 C 521.265625 330.015625 522.132812 332.265625 522.945312 334.535156 C 523.757812 336.804688 524.511719 339.09375 525.214844 341.402344 C 525.914062 343.710938 526.554688 346.035156 527.144531 348.375 C 527.730469 350.714844 528.257812 353.066406 528.726562 355.433594 C 529.199219 357.796875 529.609375 360.175781 529.964844 362.558594 C 530.316406 364.945312 530.613281 367.339844 530.851562 369.738281 C 531.085938 372.140625 531.261719 374.542969 531.382812 376.953125 C 531.5 379.363281 531.558594 381.773438 531.558594 384.183594 Z M 531.558594 384.183594"/></g><g clip-path="url(#b)"><path fill="#FFF" d="M 225.191406 648.734375 L 347.453125 648.734375 L 347.453125 233.234375 L 225.191406 233.234375 Z M 225.191406 648.734375"/></g><g clip-path="url(#c)"><path fill="#FFF" d="M 420.808594 233.234375 L 420.808594 648.734375 L 543.070312 648.734375 L 543.070312 233.234375 Z M 420.808594 233.234375"/></g></svg>